<svg xmlns="http://www.w3.org/2000/svg" xmlns:xlink="http://www.w3.org/1999/xlink" width="169" height="30" viewBox="0 0 169 30">
    <defs>
        <path id="a" d="M.458.148h16.989v20.997H.457z"/>
    </defs>
    <g fill="none" fill-rule="evenodd">
        <path fill="#FFF" d="M1 1v12.955l2.978-2.993V3.994h6.931L13.886 1z"/>
        <path fill="#EBB76C" d="M25.357 18.518v6.97h-6.932l-2.976 2.993h12.885V15.525zM1 28.481h12.886l-2.978-2.994h-6.93v-6.97L1 15.526zM15.449 1l2.976 2.994h6.932v6.968l2.977 2.993V1z"/>
        <path fill="#FFF" d="M6.13 8.797l2.976-2.993h-5.72v2.993zM39.21 6.458v6.856h8.715v2.218H39.21v9.707H36.71V4.242h12.096v2.216zM64.51 4.242h2.88l-6.613 9.975 7.421 11.022h-3.233L59.1 16.387l-5.864 8.852H50.15l7.54-10.964-6.658-10.033h3.027l5.32 7.905zM71.33 4.242h2.5V23.04h9.376v2.2H71.33zM86.852 25.239h2.498V4.242h-2.498zM94.196 4.242h3.161l11.375 17.568V4.242h2.498V25.24h-3.16L96.694 7.642V25.24h-2.498zM128.02 4.242h3.13l-8.832 10.017 9.39 10.98h-3.217l-9.318-10.772 8.848-10.225zM116.323 25.24h2.498V4.242h-2.498V25.24zM134.89 25.239V4.242h12.243v2.216h-9.744v6.856h8.935v2.218h-8.935v7.491h9.744v2.216z"/>
        <g transform="translate(151.032 4.094)">
            <mask id="b" fill="#fff">
                <use xlink:href="#a"/>
            </mask>
            <path fill="#FFF" d="M2.956 2.364v16.565h3.042a18.662 18.662 0 0 0 2.27-.104 7.81 7.81 0 0 0 1.279-.222c.357-.099.765-.241 1.22-.43.456-.184.86-.413 1.214-.678a6.782 6.782 0 0 0 1.058-1.02c.352-.413.66-.88.925-1.404.647-1.25.97-2.772.97-4.565 0-1.24-.18-2.362-.537-3.361-.357-1-.832-1.813-1.425-2.438a7.672 7.672 0 0 0-1.897-1.486 6.86 6.86 0 0 0-2.108-.739c-.43-.078-1.083-.118-1.954-.118H2.956zM6.924.148c1.353 0 2.582.134 3.688.406 1.108.27 2.037.654 2.786 1.145a9.364 9.364 0 0 1 1.932 1.67c.54.62.958 1.313 1.257 2.076.3.765.517 1.515.654 2.253.137.74.206 1.507.206 2.305 0 .917-.069 1.799-.206 2.645a12.88 12.88 0 0 1-.713 2.587 9.653 9.653 0 0 1-1.292 2.355c-.525.696-1.203 1.32-2.036 1.878-.833.557-1.778.967-2.837 1.234-.548.137-1.161.24-1.838.31a21.64 21.64 0 0 1-1.674.118c-.441.01-1.064.015-1.866.015H.458V.148h6.466z" mask="url(#b)"/>
        </g>
    </g>
</svg>
